<svg xmlns="http://www.w3.org/2000/svg" width="2400" height="2400" viewBox="0 0 2400 2400">
<style>text{font-family:'PingFang TC','Noto Sans CJK TC','Heiti TC','Arial Unicode MS',sans-serif;letter-spacing:0}</style>
<rect width="2400" height="2400" fill="#ffffff"/>
<rect x="0.0" y="0.0" width="266.7" height="266.7" fill="#ffffff" stroke="#b9b9b9" stroke-width="1.2"/>
<text x="133.3" y="133.3" text-anchor="middle" dominant-baseline="middle" font-size="42" font-weight="850" fill="#050505">
<tspan x="133.3" dy="0.0">側身準備</tspan>
</text>
<rect x="266.7" y="0.0" width="266.7" height="266.7" fill="#ffffff" stroke="#b9b9b9" stroke-width="1.2"/>
<text x="400.0" y="133.3" text-anchor="middle" dominant-baseline="middle" font-size="42" font-weight="850" fill="#050505">
<tspan x="400.0" dy="0.0">高遠拉開</tspan>
</text>
<rect x="533.3" y="0.0" width="266.7" height="266.7" fill="#ffffff" stroke="#b9b9b9" stroke-width="1.2"/>
<text x="666.7" y="133.3" text-anchor="middle" dominant-baseline="middle" font-size="42" font-weight="850" fill="#050505">
<tspan x="666.7" dy="0.0">殺球角度</tspan>
</text>
<rect x="0.0" y="266.7" width="266.7" height="266.7" fill="#ffffff" stroke="#b9b9b9" stroke-width="1.2"/>
<text x="133.3" y="400.0" text-anchor="middle" dominant-baseline="middle" font-size="42" font-weight="850" fill="#050505">
<tspan x="133.3" dy="0.0">一殺一抽</tspan>
</text>
<rect x="266.7" y="266.7" width="266.7" height="266.7" fill="#fb8aa0" stroke="#b9b9b9" stroke-width="1.2"/>
<text x="400.0" y="400.0" text-anchor="middle" dominant-baseline="middle" font-size="42" font-weight="850" fill="#050505">
<tspan x="400.0" dy="0.0">後場攻防</tspan>
</text>
<rect x="533.3" y="266.7" width="266.7" height="266.7" fill="#ffffff" stroke="#b9b9b9" stroke-width="1.2"/>
<text x="666.7" y="400.0" text-anchor="middle" dominant-baseline="middle" font-size="42" font-weight="850" fill="#050505">
<tspan x="666.7" dy="0.0">抽球拍面</tspan>
</text>
<rect x="0.0" y="533.3" width="266.7" height="266.7" fill="#ffffff" stroke="#b9b9b9" stroke-width="1.2"/>
<text x="133.3" y="666.7" text-anchor="middle" dominant-baseline="middle" font-size="42" font-weight="850" fill="#050505">
<tspan x="133.3" dy="0.0">殺後銜接</tspan>
</text>
<rect x="266.7" y="533.3" width="266.7" height="266.7" fill="#ffffff" stroke="#b9b9b9" stroke-width="1.2"/>
<text x="400.0" y="666.7" text-anchor="middle" dominant-baseline="middle" font-size="42" font-weight="850" fill="#050505">
<tspan x="400.0" dy="0.0">切吊變化</tspan>
</text>
<rect x="533.3" y="533.3" width="266.7" height="266.7" fill="#ffffff" stroke="#b9b9b9" stroke-width="1.2"/>
<text x="666.7" y="666.7" text-anchor="middle" dominant-baseline="middle" font-size="42" font-weight="850" fill="#050505">
<tspan x="666.7" dy="0.0">教練回饋</tspan>
</text>
<rect x="800.0" y="0.0" width="266.7" height="266.7" fill="#ffffff" stroke="#b9b9b9" stroke-width="1.2"/>
<text x="933.3" y="133.3" text-anchor="middle" dominant-baseline="middle" font-size="42" font-weight="850" fill="#050505">
<tspan x="933.3" dy="0.0">切球拍面</tspan>
</text>
<rect x="1066.7" y="0.0" width="266.7" height="266.7" fill="#ffffff" stroke="#b9b9b9" stroke-width="1.2"/>
<text x="1200.0" y="133.3" text-anchor="middle" dominant-baseline="middle" font-size="42" font-weight="850" fill="#050505">
<tspan x="1200.0" dy="0.0">手腕放鬆</tspan>
</text>
<rect x="1333.3" y="0.0" width="266.7" height="266.7" fill="#ffffff" stroke="#b9b9b9" stroke-width="1.2"/>
<text x="1466.7" y="133.3" text-anchor="middle" dominant-baseline="middle" font-size="42" font-weight="850" fill="#050505">
<tspan x="1466.7" dy="0.0">直線切球</tspan>
</text>
<rect x="800.0" y="266.7" width="266.7" height="266.7" fill="#ffffff" stroke="#b9b9b9" stroke-width="1.2"/>
<text x="933.3" y="400.0" text-anchor="middle" dominant-baseline="middle" font-size="42" font-weight="850" fill="#050505">
<tspan x="933.3" dy="0.0">斜線切球</tspan>
</text>
<rect x="1066.7" y="266.7" width="266.7" height="266.7" fill="#fb8aa0" stroke="#b9b9b9" stroke-width="1.2"/>
<text x="1200.0" y="400.0" text-anchor="middle" dominant-baseline="middle" font-size="42" font-weight="850" fill="#050505">
<tspan x="1200.0" dy="0.0">切吊變化</tspan>
</text>
<rect x="1333.3" y="266.7" width="266.7" height="266.7" fill="#ffffff" stroke="#b9b9b9" stroke-width="1.2"/>
<text x="1466.7" y="400.0" text-anchor="middle" dominant-baseline="middle" font-size="42" font-weight="850" fill="#050505">
<tspan x="1466.7" dy="0.0">假動作</tspan>
</text>
<rect x="800.0" y="533.3" width="266.7" height="266.7" fill="#ffffff" stroke="#b9b9b9" stroke-width="1.2"/>
<text x="933.3" y="666.7" text-anchor="middle" dominant-baseline="middle" font-size="42" font-weight="850" fill="#050505">
<tspan x="933.3" dy="0.0">落點深淺</tspan>
</text>
<rect x="1066.7" y="533.3" width="266.7" height="266.7" fill="#ffffff" stroke="#b9b9b9" stroke-width="1.2"/>
<text x="1200.0" y="666.7" text-anchor="middle" dominant-baseline="middle" font-size="42" font-weight="850" fill="#050505">
<tspan x="1200.0" dy="0.0">節奏快慢</tspan>
</text>
<rect x="1333.3" y="533.3" width="266.7" height="266.7" fill="#ffffff" stroke="#b9b9b9" stroke-width="1.2"/>
<text x="1466.7" y="666.7" text-anchor="middle" dominant-baseline="middle" font-size="42" font-weight="850" fill="#050505">
<tspan x="1466.7" dy="0.0">看重心</tspan>
</text>
<rect x="1600.0" y="0.0" width="266.7" height="266.7" fill="#ffffff" stroke="#b9b9b9" stroke-width="1.2"/>
<text x="1733.3" y="133.3" text-anchor="middle" dominant-baseline="middle" font-size="42" font-weight="850" fill="#050505">
<tspan x="1733.3" dy="0.0">搓球高度</tspan>
</text>
<rect x="1866.7" y="0.0" width="266.7" height="266.7" fill="#ffffff" stroke="#b9b9b9" stroke-width="1.2"/>
<text x="2000.0" y="133.3" text-anchor="middle" dominant-baseline="middle" font-size="42" font-weight="850" fill="#050505">
<tspan x="2000.0" dy="0.0">放小球</tspan>
</text>
<rect x="2133.3" y="0.0" width="266.7" height="266.7" fill="#ffffff" stroke="#b9b9b9" stroke-width="1.2"/>
<text x="2266.7" y="133.3" text-anchor="middle" dominant-baseline="middle" font-size="42" font-weight="850" fill="#050505">
<tspan x="2266.7" dy="0.0">勾對角</tspan>
</text>
<rect x="1600.0" y="266.7" width="266.7" height="266.7" fill="#ffffff" stroke="#b9b9b9" stroke-width="1.2"/>
<text x="1733.3" y="400.0" text-anchor="middle" dominant-baseline="middle" font-size="42" font-weight="850" fill="#050505">
<tspan x="1733.3" dy="0.0">推後場</tspan>
</text>
<rect x="1866.7" y="266.7" width="266.7" height="266.7" fill="#fb8aa0" stroke="#b9b9b9" stroke-width="1.2"/>
<text x="2000.0" y="400.0" text-anchor="middle" dominant-baseline="middle" font-size="42" font-weight="850" fill="#050505">
<tspan x="2000.0" dy="0.0">網前手感</tspan>
</text>
<rect x="2133.3" y="266.7" width="266.7" height="266.7" fill="#ffffff" stroke="#b9b9b9" stroke-width="1.2"/>
<text x="2266.7" y="400.0" text-anchor="middle" dominant-baseline="middle" font-size="42" font-weight="850" fill="#050505">
<tspan x="2266.7" dy="0.0">撲球時機</tspan>
</text>
<rect x="1600.0" y="533.3" width="266.7" height="266.7" fill="#ffffff" stroke="#b9b9b9" stroke-width="1.2"/>
<text x="1733.3" y="666.7" text-anchor="middle" dominant-baseline="middle" font-size="42" font-weight="850" fill="#050505">
<tspan x="1733.3" dy="0.0">拍面細膩</tspan>
</text>
<rect x="1866.7" y="533.3" width="266.7" height="266.7" fill="#ffffff" stroke="#b9b9b9" stroke-width="1.2"/>
<text x="2000.0" y="666.7" text-anchor="middle" dominant-baseline="middle" font-size="42" font-weight="850" fill="#050505">
<tspan x="2000.0" dy="0.0">逼近前場</tspan>
</text>
<rect x="2133.3" y="533.3" width="266.7" height="266.7" fill="#ffffff" stroke="#b9b9b9" stroke-width="1.2"/>
<text x="2266.7" y="666.7" text-anchor="middle" dominant-baseline="middle" font-size="42" font-weight="850" fill="#050505">
<tspan x="2266.7" dy="0.0">前後連動</tspan>
</text>
<rect x="0.0" y="800.0" width="266.7" height="266.7" fill="#ffffff" stroke="#b9b9b9" stroke-width="1.2"/>
<text x="133.3" y="933.3" text-anchor="middle" dominant-baseline="middle" font-size="42" font-weight="850" fill="#050505">
<tspan x="133.3" dy="0.0">後退啟動</tspan>
</text>
<rect x="266.7" y="800.0" width="266.7" height="266.7" fill="#ffffff" stroke="#b9b9b9" stroke-width="1.2"/>
<text x="400.0" y="933.3" text-anchor="middle" dominant-baseline="middle" font-size="42" font-weight="850" fill="#050505">
<tspan x="400.0" dy="0.0">交叉步</tspan>
</text>
<rect x="533.3" y="800.0" width="266.7" height="266.7" fill="#ffffff" stroke="#b9b9b9" stroke-width="1.2"/>
<text x="666.7" y="933.3" text-anchor="middle" dominant-baseline="middle" font-size="42" font-weight="850" fill="#050505">
<tspan x="666.7" dy="0.0">墊步調整</tspan>
</text>
<rect x="0.0" y="1066.7" width="266.7" height="266.7" fill="#ffffff" stroke="#b9b9b9" stroke-width="1.2"/>
<text x="133.3" y="1200.0" text-anchor="middle" dominant-baseline="middle" font-size="42" font-weight="850" fill="#050505">
<tspan x="133.3" dy="0.0">重心回位</tspan>
</text>
<rect x="266.7" y="1066.7" width="266.7" height="266.7" fill="#fb8aa0" stroke="#b9b9b9" stroke-width="1.2"/>
<text x="400.0" y="1200.0" text-anchor="middle" dominant-baseline="middle" font-size="42" font-weight="850" fill="#050505">
<tspan x="400.0" dy="0.0">重心步法</tspan>
</text>
<rect x="533.3" y="1066.7" width="266.7" height="266.7" fill="#ffffff" stroke="#b9b9b9" stroke-width="1.2"/>
<text x="666.7" y="1200.0" text-anchor="middle" dominant-baseline="middle" font-size="42" font-weight="850" fill="#050505">
<tspan x="666.7" dy="0.0">核心穩定</tspan>
</text>
<rect x="0.0" y="1333.3" width="266.7" height="266.7" fill="#ffffff" stroke="#b9b9b9" stroke-width="1.2"/>
<text x="133.3" y="1466.7" text-anchor="middle" dominant-baseline="middle" font-size="42" font-weight="850" fill="#050505">
<tspan x="133.3" dy="0.0">膝踝保護</tspan>
</text>
<rect x="266.7" y="1333.3" width="266.7" height="266.7" fill="#ffffff" stroke="#b9b9b9" stroke-width="1.2"/>
<text x="400.0" y="1466.7" text-anchor="middle" dominant-baseline="middle" font-size="42" font-weight="850" fill="#050505">
<tspan x="400.0" dy="0.0">連續多拍</tspan>
</text>
<rect x="533.3" y="1333.3" width="266.7" height="266.7" fill="#ffffff" stroke="#b9b9b9" stroke-width="1.2"/>
<text x="666.7" y="1466.7" text-anchor="middle" dominant-baseline="middle" font-size="42" font-weight="850" fill="#050505">
<tspan x="666.7" dy="0.0">收操恢復</tspan>
</text>
<rect x="800.0" y="800.0" width="266.7" height="266.7" fill="#fb8aa0" stroke="#b9b9b9" stroke-width="1.2"/>
<text x="933.3" y="933.3" text-anchor="middle" dominant-baseline="middle" font-size="42" font-weight="850" fill="#050505">
<tspan x="933.3" dy="0.0">後場攻防</tspan>
</text>
<rect x="1066.7" y="800.0" width="266.7" height="266.7" fill="#fb8aa0" stroke="#b9b9b9" stroke-width="1.2"/>
<text x="1200.0" y="933.3" text-anchor="middle" dominant-baseline="middle" font-size="42" font-weight="850" fill="#050505">
<tspan x="1200.0" dy="0.0">切吊變化</tspan>
</text>
<rect x="1333.3" y="800.0" width="266.7" height="266.7" fill="#fb8aa0" stroke="#b9b9b9" stroke-width="1.2"/>
<text x="1466.7" y="933.3" text-anchor="middle" dominant-baseline="middle" font-size="42" font-weight="850" fill="#050505">
<tspan x="1466.7" dy="0.0">網前手感</tspan>
</text>
<rect x="800.0" y="1066.7" width="266.7" height="266.7" fill="#fb8aa0" stroke="#b9b9b9" stroke-width="1.2"/>
<text x="933.3" y="1200.0" text-anchor="middle" dominant-baseline="middle" font-size="42" font-weight="850" fill="#050505">
<tspan x="933.3" dy="0.0">重心步法</tspan>
</text>
<rect x="1066.7" y="1066.7" width="266.7" height="266.7" fill="#ff260f" stroke="#b9b9b9" stroke-width="1.2"/>
<text x="1200.0" y="1162.2" text-anchor="middle" dominant-baseline="middle" font-size="36" font-weight="850" fill="#ffffff">
<tspan x="1200.0" dy="0.0">越老越健康</tspan>
<tspan x="1200.0" dy="37.8">越久越快樂</tspan>
<tspan x="1200.0" dy="37.8">重心強</tspan>
</text>
<rect x="1333.3" y="1066.7" width="266.7" height="266.7" fill="#fb8aa0" stroke="#b9b9b9" stroke-width="1.2"/>
<text x="1466.7" y="1200.0" text-anchor="middle" dominant-baseline="middle" font-size="42" font-weight="850" fill="#050505">
<tspan x="1466.7" dy="0.0">發接前三</tspan>
</text>
<rect x="800.0" y="1333.3" width="266.7" height="266.7" fill="#fb8aa0" stroke="#b9b9b9" stroke-width="1.2"/>
<text x="933.3" y="1466.7" text-anchor="middle" dominant-baseline="middle" font-size="42" font-weight="850" fill="#050505">
<tspan x="933.3" dy="0.0">恢復保養</tspan>
</text>
<rect x="1066.7" y="1333.3" width="266.7" height="266.7" fill="#fb8aa0" stroke="#b9b9b9" stroke-width="1.2"/>
<text x="1200.0" y="1466.7" text-anchor="middle" dominant-baseline="middle" font-size="42" font-weight="850" fill="#050505">
<tspan x="1200.0" dy="0.0">球友情場</tspan>
</text>
<rect x="1333.3" y="1333.3" width="266.7" height="266.7" fill="#fb8aa0" stroke="#b9b9b9" stroke-width="1.2"/>
<text x="1466.7" y="1466.7" text-anchor="middle" dominant-baseline="middle" font-size="42" font-weight="850" fill="#050505">
<tspan x="1466.7" dy="0.0">長壽榜樣</tspan>
</text>
<rect x="1600.0" y="800.0" width="266.7" height="266.7" fill="#ffffff" stroke="#b9b9b9" stroke-width="1.2"/>
<text x="1733.3" y="933.3" text-anchor="middle" dominant-baseline="middle" font-size="42" font-weight="850" fill="#050505">
<tspan x="1733.3" dy="0.0">發球穩定</tspan>
</text>
<rect x="1866.7" y="800.0" width="266.7" height="266.7" fill="#ffffff" stroke="#b9b9b9" stroke-width="1.2"/>
<text x="2000.0" y="933.3" text-anchor="middle" dominant-baseline="middle" font-size="42" font-weight="850" fill="#050505">
<tspan x="2000.0" dy="0.0">接發判斷</tspan>
</text>
<rect x="2133.3" y="800.0" width="266.7" height="266.7" fill="#ffffff" stroke="#b9b9b9" stroke-width="1.2"/>
<text x="2266.7" y="933.3" text-anchor="middle" dominant-baseline="middle" font-size="42" font-weight="850" fill="#050505">
<tspan x="2266.7" dy="0.0">第三拍</tspan>
</text>
<rect x="1600.0" y="1066.7" width="266.7" height="266.7" fill="#ffffff" stroke="#b9b9b9" stroke-width="1.2"/>
<text x="1733.3" y="1200.0" text-anchor="middle" dominant-baseline="middle" font-size="42" font-weight="850" fill="#050505">
<tspan x="1733.3" dy="0.0">短發長發</tspan>
</text>
<rect x="1866.7" y="1066.7" width="266.7" height="266.7" fill="#fb8aa0" stroke="#b9b9b9" stroke-width="1.2"/>
<text x="2000.0" y="1200.0" text-anchor="middle" dominant-baseline="middle" font-size="42" font-weight="850" fill="#050505">
<tspan x="2000.0" dy="0.0">發接前三</tspan>
</text>
<rect x="2133.3" y="1066.7" width="266.7" height="266.7" fill="#ffffff" stroke="#b9b9b9" stroke-width="1.2"/>
<text x="2266.7" y="1200.0" text-anchor="middle" dominant-baseline="middle" font-size="42" font-weight="850" fill="#050505">
<tspan x="2266.7" dy="0.0">搶主動</tspan>
</text>
<rect x="1600.0" y="1333.3" width="266.7" height="266.7" fill="#ffffff" stroke="#b9b9b9" stroke-width="1.2"/>
<text x="1733.3" y="1466.7" text-anchor="middle" dominant-baseline="middle" font-size="42" font-weight="850" fill="#050505">
<tspan x="1733.3" dy="0.0">站位選擇</tspan>
</text>
<rect x="1866.7" y="1333.3" width="266.7" height="266.7" fill="#ffffff" stroke="#b9b9b9" stroke-width="1.2"/>
<text x="2000.0" y="1466.7" text-anchor="middle" dominant-baseline="middle" font-size="42" font-weight="850" fill="#050505">
<tspan x="2000.0" dy="0.0">對手習慣</tspan>
</text>
<rect x="2133.3" y="1333.3" width="266.7" height="266.7" fill="#ffffff" stroke="#b9b9b9" stroke-width="1.2"/>
<text x="2266.7" y="1466.7" text-anchor="middle" dominant-baseline="middle" font-size="42" font-weight="850" fill="#050505">
<tspan x="2266.7" dy="0.0">開局節奏</tspan>
</text>
<rect x="0.0" y="1600.0" width="266.7" height="266.7" fill="#65eadb" stroke="#b9b9b9" stroke-width="1.2"/>
<text x="133.3" y="1733.3" text-anchor="middle" dominant-baseline="middle" font-size="42" font-weight="850" fill="#050505">
<tspan x="133.3" dy="0.0">睡眠品質</tspan>
</text>
<rect x="266.7" y="1600.0" width="266.7" height="266.7" fill="#65eadb" stroke="#b9b9b9" stroke-width="1.2"/>
<text x="400.0" y="1733.3" text-anchor="middle" dominant-baseline="middle" font-size="42" font-weight="850" fill="#050505">
<tspan x="400.0" dy="0.0">疼痛警訊</tspan>
</text>
<rect x="533.3" y="1600.0" width="266.7" height="266.7" fill="#65eadb" stroke="#b9b9b9" stroke-width="1.2"/>
<text x="666.7" y="1733.3" text-anchor="middle" dominant-baseline="middle" font-size="42" font-weight="850" fill="#050505">
<tspan x="666.7" dy="0.0">肩肘照顧</tspan>
</text>
<rect x="0.0" y="1866.7" width="266.7" height="266.7" fill="#65eadb" stroke="#b9b9b9" stroke-width="1.2"/>
<text x="133.3" y="2000.0" text-anchor="middle" dominant-baseline="middle" font-size="42" font-weight="850" fill="#050505">
<tspan x="133.3" dy="0.0">膝踝保護</tspan>
</text>
<rect x="266.7" y="1866.7" width="266.7" height="266.7" fill="#fb8aa0" stroke="#b9b9b9" stroke-width="1.2"/>
<text x="400.0" y="2000.0" text-anchor="middle" dominant-baseline="middle" font-size="42" font-weight="850" fill="#050505">
<tspan x="400.0" dy="0.0">恢復保養</tspan>
</text>
<rect x="533.3" y="1866.7" width="266.7" height="266.7" fill="#65eadb" stroke="#b9b9b9" stroke-width="1.2"/>
<text x="666.7" y="2000.0" text-anchor="middle" dominant-baseline="middle" font-size="42" font-weight="850" fill="#050505">
<tspan x="666.7" dy="0.0">呼吸放鬆</tspan>
</text>
<rect x="0.0" y="2133.3" width="266.7" height="266.7" fill="#65eadb" stroke="#b9b9b9" stroke-width="1.2"/>
<text x="133.3" y="2266.7" text-anchor="middle" dominant-baseline="middle" font-size="42" font-weight="850" fill="#050505">
<tspan x="133.3" dy="0.0">賽後復盤</tspan>
</text>
<rect x="266.7" y="2133.3" width="266.7" height="266.7" fill="#65eadb" stroke="#b9b9b9" stroke-width="1.2"/>
<text x="400.0" y="2266.7" text-anchor="middle" dominant-baseline="middle" font-size="42" font-weight="850" fill="#050505">
<tspan x="400.0" dy="0.0">低潮管理</tspan>
</text>
<rect x="533.3" y="2133.3" width="266.7" height="266.7" fill="#65eadb" stroke="#b9b9b9" stroke-width="1.2"/>
<text x="666.7" y="2266.7" text-anchor="middle" dominant-baseline="middle" font-size="42" font-weight="850" fill="#050505">
<tspan x="666.7" dy="0.0">再出發</tspan>
</text>
<rect x="800.0" y="1600.0" width="266.7" height="266.7" fill="#65eadb" stroke="#b9b9b9" stroke-width="1.2"/>
<text x="933.3" y="1733.3" text-anchor="middle" dominant-baseline="middle" font-size="42" font-weight="850" fill="#050505">
<tspan x="933.3" dy="0.0">準時出席</tspan>
</text>
<rect x="1066.7" y="1600.0" width="266.7" height="266.7" fill="#65eadb" stroke="#b9b9b9" stroke-width="1.2"/>
<text x="1200.0" y="1733.3" text-anchor="middle" dominant-baseline="middle" font-size="42" font-weight="850" fill="#050505">
<tspan x="1200.0" dy="0.0">尊重教練</tspan>
</text>
<rect x="1333.3" y="1600.0" width="266.7" height="266.7" fill="#65eadb" stroke="#b9b9b9" stroke-width="1.2"/>
<text x="1466.7" y="1733.3" text-anchor="middle" dominant-baseline="middle" font-size="42" font-weight="850" fill="#050505">
<tspan x="1466.7" dy="0.0">球友互助</tspan>
</text>
<rect x="800.0" y="1866.7" width="266.7" height="266.7" fill="#65eadb" stroke="#b9b9b9" stroke-width="1.2"/>
<text x="933.3" y="2000.0" text-anchor="middle" dominant-baseline="middle" font-size="42" font-weight="850" fill="#050505">
<tspan x="933.3" dy="0.0">願意陪練</tspan>
</text>
<rect x="1066.7" y="1866.7" width="266.7" height="266.7" fill="#fb8aa0" stroke="#b9b9b9" stroke-width="1.2"/>
<text x="1200.0" y="2000.0" text-anchor="middle" dominant-baseline="middle" font-size="42" font-weight="850" fill="#050505">
<tspan x="1200.0" dy="0.0">球友情場</tspan>
</text>
<rect x="1333.3" y="1866.7" width="266.7" height="266.7" fill="#65eadb" stroke="#b9b9b9" stroke-width="1.2"/>
<text x="1466.7" y="2000.0" text-anchor="middle" dominant-baseline="middle" font-size="42" font-weight="850" fill="#050505">
<tspan x="1466.7" dy="0.0">態度累積</tspan>
</text>
<rect x="800.0" y="2133.3" width="266.7" height="266.7" fill="#65eadb" stroke="#b9b9b9" stroke-width="1.2"/>
<text x="933.3" y="2266.7" text-anchor="middle" dominant-baseline="middle" font-size="42" font-weight="850" fill="#050505">
<tspan x="933.3" dy="0.0">回饋筆記</tspan>
</text>
<rect x="1066.7" y="2133.3" width="266.7" height="266.7" fill="#65eadb" stroke="#b9b9b9" stroke-width="1.2"/>
<text x="1200.0" y="2266.7" text-anchor="middle" dominant-baseline="middle" font-size="42" font-weight="850" fill="#050505">
<tspan x="1200.0" dy="0.0">穩定練習</tspan>
</text>
<rect x="1333.3" y="2133.3" width="266.7" height="266.7" fill="#65eadb" stroke="#b9b9b9" stroke-width="1.2"/>
<text x="1466.7" y="2266.7" text-anchor="middle" dominant-baseline="middle" font-size="42" font-weight="850" fill="#050505">
<tspan x="1466.7" dy="0.0">長期信用</tspan>
</text>
<rect x="1600.0" y="1600.0" width="266.7" height="266.7" fill="#65eadb" stroke="#b9b9b9" stroke-width="1.2"/>
<text x="1733.3" y="1712.9" text-anchor="middle" dominant-baseline="middle" font-size="39" font-weight="850" fill="#050505">
<tspan x="1733.3" dy="0.0">106歲</tspan>
<tspan x="1733.3" dy="41.0">目標</tspan>
</text>
<rect x="1866.7" y="1600.0" width="266.7" height="266.7" fill="#65eadb" stroke="#b9b9b9" stroke-width="1.2"/>
<text x="2000.0" y="1733.3" text-anchor="middle" dominant-baseline="middle" font-size="42" font-weight="850" fill="#050505">
<tspan x="2000.0" dy="0.0">世界紀錄</tspan>
</text>
<rect x="2133.3" y="1600.0" width="266.7" height="266.7" fill="#65eadb" stroke="#b9b9b9" stroke-width="1.2"/>
<text x="2266.7" y="1733.3" text-anchor="middle" dominant-baseline="middle" font-size="42" font-weight="850" fill="#050505">
<tspan x="2266.7" dy="0.0">越打越久</tspan>
</text>
<rect x="1600.0" y="1866.7" width="266.7" height="266.7" fill="#65eadb" stroke="#b9b9b9" stroke-width="1.2"/>
<text x="1733.3" y="2000.0" text-anchor="middle" dominant-baseline="middle" font-size="42" font-weight="850" fill="#050505">
<tspan x="1733.3" dy="0.0">越打越樂</tspan>
</text>
<rect x="1866.7" y="1866.7" width="266.7" height="266.7" fill="#fb8aa0" stroke="#b9b9b9" stroke-width="1.2"/>
<text x="2000.0" y="2000.0" text-anchor="middle" dominant-baseline="middle" font-size="42" font-weight="850" fill="#050505">
<tspan x="2000.0" dy="0.0">長壽榜樣</tspan>
</text>
<rect x="2133.3" y="1866.7" width="266.7" height="266.7" fill="#65eadb" stroke="#b9b9b9" stroke-width="1.2"/>
<text x="2266.7" y="2000.0" text-anchor="middle" dominant-baseline="middle" font-size="42" font-weight="850" fill="#050505">
<tspan x="2266.7" dy="0.0">慢慢變強</tspan>
</text>
<rect x="1600.0" y="2133.3" width="266.7" height="266.7" fill="#65eadb" stroke="#b9b9b9" stroke-width="1.2"/>
<text x="1733.3" y="2266.7" text-anchor="middle" dominant-baseline="middle" font-size="42" font-weight="850" fill="#050505">
<tspan x="1733.3" dy="0.0">不急不傷</tspan>
</text>
<rect x="1866.7" y="2133.3" width="266.7" height="266.7" fill="#65eadb" stroke="#b9b9b9" stroke-width="1.2"/>
<text x="2000.0" y="2266.7" text-anchor="middle" dominant-baseline="middle" font-size="42" font-weight="850" fill="#050505">
<tspan x="2000.0" dy="0.0">每週追蹤</tspan>
</text>
<rect x="2133.3" y="2133.3" width="266.7" height="266.7" fill="#65eadb" stroke="#b9b9b9" stroke-width="1.2"/>
<text x="2266.7" y="2266.7" text-anchor="middle" dominant-baseline="middle" font-size="42" font-weight="850" fill="#050505">
<tspan x="2266.7" dy="0.0">終身球員</tspan>
</text>
<line x1="0.0" y1="0" x2="0.0" y2="2400" stroke="#050505" stroke-width="7"/>
<line x1="0" y1="0.0" x2="2400" y2="0.0" stroke="#050505" stroke-width="7"/>
<line x1="266.7" y1="0" x2="266.7" y2="2400" stroke="#b9b9b9" stroke-width="1.4"/>
<line x1="0" y1="266.7" x2="2400" y2="266.7" stroke="#b9b9b9" stroke-width="1.4"/>
<line x1="533.3" y1="0" x2="533.3" y2="2400" stroke="#b9b9b9" stroke-width="1.4"/>
<line x1="0" y1="533.3" x2="2400" y2="533.3" stroke="#b9b9b9" stroke-width="1.4"/>
<line x1="800.0" y1="0" x2="800.0" y2="2400" stroke="#050505" stroke-width="7"/>
<line x1="0" y1="800.0" x2="2400" y2="800.0" stroke="#050505" stroke-width="7"/>
<line x1="1066.7" y1="0" x2="1066.7" y2="2400" stroke="#b9b9b9" stroke-width="1.4"/>
<line x1="0" y1="1066.7" x2="2400" y2="1066.7" stroke="#b9b9b9" stroke-width="1.4"/>
<line x1="1333.3" y1="0" x2="1333.3" y2="2400" stroke="#b9b9b9" stroke-width="1.4"/>
<line x1="0" y1="1333.3" x2="2400" y2="1333.3" stroke="#b9b9b9" stroke-width="1.4"/>
<line x1="1600.0" y1="0" x2="1600.0" y2="2400" stroke="#050505" stroke-width="7"/>
<line x1="0" y1="1600.0" x2="2400" y2="1600.0" stroke="#050505" stroke-width="7"/>
<line x1="1866.7" y1="0" x2="1866.7" y2="2400" stroke="#b9b9b9" stroke-width="1.4"/>
<line x1="0" y1="1866.7" x2="2400" y2="1866.7" stroke="#b9b9b9" stroke-width="1.4"/>
<line x1="2133.3" y1="0" x2="2133.3" y2="2400" stroke="#b9b9b9" stroke-width="1.4"/>
<line x1="0" y1="2133.3" x2="2400" y2="2133.3" stroke="#b9b9b9" stroke-width="1.4"/>
<line x1="2400.0" y1="0" x2="2400.0" y2="2400" stroke="#050505" stroke-width="7"/>
<line x1="0" y1="2400.0" x2="2400" y2="2400.0" stroke="#050505" stroke-width="7"/>
</svg>